<!-- Generated by IcoMoon.io -->
<svg version="1.1" xmlns="http://www.w3.org/2000/svg" width="1088" height="1024" viewBox="0 0 1088 1024">
<title></title>
<g id="icomoon-ignore">
</g>
<path fill="#fff" d="M1088 976v-608c0-8.832-7.168-16-16-16s-16 7.168-16 16v608c0 8.832-7.168 16-16 16h-992c-8.832 0-16-7.168-16-16v-608c0-8.832-7.168-16-16-16s-16 7.168-16 16v608c0 26.464 21.536 48 48 48h992c26.464 0 48-21.536 48-48zM144 736c-8.832 0-16 7.168-16 16s7.168 16 16 16h48v112c0 8.832 7.168 16 16 16s16-7.168 16-16v-112h192v112c0 8.832 7.168 16 16 16s16-7.168 16-16v-112h192v112c0 8.832 7.168 16 16 16s16-7.168 16-16v-112h192v112c0 8.832 7.168 16 16 16s16-7.168 16-16v-112h48c8.832 0 16-7.168 16-16s-7.168-16-16-16h-48v-160h48c8.832 0 16-7.168 16-16s-7.168-16-16-16h-48v-144c0-8.832-7.168-16-16-16s-16 7.168-16 16v144h-192v-144c0-8.832-7.168-16-16-16s-16 7.168-16 16v144h-192v-144c0-8.832-7.168-16-16-16s-16 7.168-16 16v144h-192v-144c0-8.832-7.168-16-16-16s-16 7.168-16 16v144h-48c-8.832 0-16 7.168-16 16s7.168 16 16 16h48v160h-48zM864 576v160h-192v-160h192zM640 576v160h-192v-160h192zM224 576h192v160h-192v-160zM912 96h136c2.784 0 8 0 8 16v144h-1024v-144c0-8.832 7.168-16 16-16h128c8.832 0 16-7.168 16-16s-7.168-16-16-16h-128c-26.464 0-48 21.536-48 48v160c0 8.832 7.168 16 16 16h1056c8.832 0 16-7.168 16-16v-160c0-35.392-20.672-48-40-48h-136c-8.832 0-16 7.168-16 16s7.168 16 16 16zM720 96c8.832 0 16-7.168 16-16s-7.168-16-16-16h-352c-8.832 0-16 7.168-16 16s7.168 16 16 16h352zM288 144v-128c0-8.832-7.168-16-16-16s-16 7.168-16 16v128c0 8.832 7.168 16 16 16s16-7.168 16-16zM816 160c8.832 0 16-7.168 16-16v-128c0-8.832-7.168-16-16-16s-16 7.168-16 16v128c0 8.832 7.168 16 16 16z"></path>
</svg>
