<svg aria-hidden="true" style="position: absolute; width: 0; height: 0; overflow: hidden;" version="1.1" xmlns="http://www.w3.org/2000/svg" xmlns:xlink="http://www.w3.org/1999/xlink">
<defs>
<symbol id="icon-pluscircle" viewBox="0 0 24 24">
<path d="M23 12c0-3.037-1.232-5.789-3.222-7.778s-4.741-3.222-7.778-3.222-5.789 1.232-7.778 3.222-3.222 4.741-3.222 7.778 1.232 5.789 3.222 7.778 4.741 3.222 7.778 3.222 5.789-1.232 7.778-3.222 3.222-4.741 3.222-7.778zM21 12c0 2.486-1.006 4.734-2.636 6.364s-3.878 2.636-6.364 2.636-4.734-1.006-6.364-2.636-2.636-3.878-2.636-6.364 1.006-4.734 2.636-6.364 3.878-2.636 6.364-2.636 4.734 1.006 6.364 2.636 2.636 3.878 2.636 6.364zM8 13h3v3c0 0.552 0.448 1 1 1s1-0.448 1-1v-3h3c0.552 0 1-0.448 1-1s-0.448-1-1-1h-3v-3c0-0.552-0.448-1-1-1s-1 0.448-1 1v3h-3c-0.552 0-1 0.448-1 1s0.448 1 1 1z"></path>
</symbol>
<symbol id="icon-clock" viewBox="0 0 24 24">
<path d="M23 12c0-3.037-1.232-5.789-3.222-7.778s-4.741-3.222-7.778-3.222-5.789 1.232-7.778 3.222-3.222 4.741-3.222 7.778 1.232 5.789 3.222 7.778 4.741 3.222 7.778 3.222 5.789-1.232 7.778-3.222 3.222-4.741 3.222-7.778zM21 12c0 2.486-1.006 4.734-2.636 6.364s-3.878 2.636-6.364 2.636-4.734-1.006-6.364-2.636-2.636-3.878-2.636-6.364 1.006-4.734 2.636-6.364 3.878-2.636 6.364-2.636 4.734 1.006 6.364 2.636 2.636 3.878 2.636 6.364zM11 6v6c0 0.389 0.222 0.727 0.553 0.894l4 2c0.494 0.247 1.095 0.047 1.342-0.447s0.047-1.095-0.447-1.342l-3.448-1.723v-5.382c0-0.552-0.448-1-1-1s-1 0.448-1 1z"></path>
</symbol>
<symbol id="icon-trash" viewBox="0 0 24 24" fill="#f03e3e">
<path d="M18 7v13c0 0.276-0.111 0.525-0.293 0.707s-0.431 0.293-0.707 0.293h-10c-0.276 0-0.525-0.111-0.707-0.293s-0.293-0.431-0.293-0.707v-13zM17 5v-1c0-0.828-0.337-1.58-0.879-2.121s-1.293-0.879-2.121-0.879h-4c-0.828 0-1.58 0.337-2.121 0.879s-0.879 1.293-0.879 2.121v1h-4c-0.552 0-1 0.448-1 1s0.448 1 1 1h1v13c0 0.828 0.337 1.58 0.879 2.121s1.293 0.879 2.121 0.879h10c0.828 0 1.58-0.337 2.121-0.879s0.879-1.293 0.879-2.121v-13h1c0.552 0 1-0.448 1-1s-0.448-1-1-1zM9 5v-1c0-0.276 0.111-0.525 0.293-0.707s0.431-0.293 0.707-0.293h4c0.276 0 0.525 0.111 0.707 0.293s0.293 0.431 0.293 0.707v1z"></path>
</symbol>
<symbol id="icon-edit" viewBox="0 0 24 24">
<path d="M11 3h-7c-0.828 0-1.58 0.337-2.121 0.879s-0.879 1.293-0.879 2.121v14c0 0.828 0.337 1.58 0.879 2.121s1.293 0.879 2.121 0.879h14c0.828 0 1.58-0.337 2.121-0.879s0.879-1.293 0.879-2.121v-7c0-0.552-0.448-1-1-1s-1 0.448-1 1v7c0 0.276-0.111 0.525-0.293 0.707s-0.431 0.293-0.707 0.293h-14c-0.276 0-0.525-0.111-0.707-0.293s-0.293-0.431-0.293-0.707v-14c0-0.276 0.111-0.525 0.293-0.707s0.431-0.293 0.707-0.293h7c0.552 0 1-0.448 1-1s-0.448-1-1-1zM17.793 1.793l-9.5 9.5c-0.122 0.121-0.217 0.28-0.263 0.465l-1 4c-0.039 0.15-0.042 0.318 0 0.485 0.134 0.536 0.677 0.862 1.213 0.728l4-1c0.167-0.041 0.33-0.129 0.465-0.263l9.5-9.5c0.609-0.609 0.914-1.41 0.914-2.207s-0.305-1.598-0.914-2.207-1.411-0.915-2.208-0.915-1.598 0.305-2.207 0.914zM19.207 3.207c0.219-0.219 0.504-0.328 0.793-0.328s0.574 0.109 0.793 0.328 0.328 0.504 0.328 0.793-0.109 0.574-0.328 0.793l-9.304 9.304-2.114 0.529 0.529-2.114z"></path>
</symbol>
<symbol id="icon-calendar" viewBox="0 0 32 32">
<path d="M29.334 3h-4.334v-2c0-0.553-0.447-1-1-1s-1 0.447-1 1v2h-6v-2c0-0.553-0.448-1-1-1s-1 0.447-1 1v2h-6v-2c0-0.553-0.448-1-1-1s-1 0.447-1 1v2h-4.333c-1.473 0-2.667 1.193-2.667 2.666v23.667c0 1.473 1.194 2.667 2.667 2.667h26.667c1.473 0 2.666-1.194 2.666-2.667v-23.667c0-1.473-1.193-2.666-2.666-2.666zM30 29.333c0 0.368-0.299 0.667-0.666 0.667h-26.667c-0.368 0-0.667-0.299-0.667-0.667v-23.667c0-0.367 0.299-0.666 0.667-0.666h4.333v2c0 0.553 0.448 1 1 1s1-0.447 1-1v-2h6v2c0 0.553 0.448 1 1 1s1-0.447 1-1v-2h6v2c0 0.553 0.447 1 1 1s1-0.447 1-1v-2h4.334c0.367 0 0.666 0.299 0.666 0.666v23.667zM7 12h4v3h-4zM7 17h4v3h-4zM7 22h4v3h-4zM14 22h4v3h-4zM14 17h4v3h-4zM14 12h4v3h-4zM21 22h4v3h-4zM21 17h4v3h-4zM21 12h4v3h-4z"></path>
</symbol>
</defs>
</svg>
